<svg width="210mm" height="297mm" viewBox="0 0 210 297" xml:space="preserve" xmlns="http://www.w3.org/2000/svg"><path style="fill:#000;stroke-width:.190118" d="M82.203 234.678c-.264-.694.088-1.658.97-2.661.43-.489.739-.932.686-.985-.262-.261-1.248.268-2.034 1.092-1.331 1.396-2.06.967-2.078-1.223-.015-1.91.782-2.727 4.191-4.297 2.43-1.12 8.425-2.733 10.997-2.96.784-.07 2.36-.292 3.503-.495 1.142-.203 2.141-.37 2.22-.37 3.317 0-.87-7.674-7.41-13.578-4.528-4.087-12.001-14.405-12.001-16.568 0-.542-1.837-5.66-2.518-7.016-3.355-6.68-1.976-15.772 3.175-20.93 5.426-5.435 11.295-6.625 17.392-3.526 2.375 1.207 4.653 2.83 5.112 3.642.976 1.726 2.328 2.764 2.618 2.009.157-.41-2.085-4.696-2.805-5.365-2.279-2.116-8.148-4.623-11.459-4.895-2.524-.208-2.688-.5-2.084-3.72.183-.976.26-2.02.192-2.599-.113-.967-.113-.967.808-1.564 2.379-1.542 6.687-6.737 7.44-8.972.608-1.803.301-1.797-1.7.03-3.385 3.09-4.195 3.709-7.173 5.474-1.655.982-3.822 2.353-4.816 3.048-3.236 2.262-7.898 4.138-12.802 5.15-1.585.327-4.08.965-5.544 1.417-6.749 2.086-7.324 2.227-9.126 2.234-6.004.022-9.523-1.516-10.103-4.414-.202-1.01 1.455-1.854 4.495-2.29 1.645-.236 5.284-1.208 6.155-1.644 6.813-3.414 12.303-9.158 17.237-18.034 3.287-5.915 11.895-17.13 14.251-18.569.976-.595 3.689-1.431 5.514-1.699 1.361-.2 2.254-.783 1.712-1.119-1.23-.763-4.259-.3-6.194.949-1.086.7-1.502.071-.608-.919.793-.877 1.013-1.672.959-3.453-.047-1.533.023-1.472-3.567-3.12-2.975-1.366-4.23-2.052-5.63-3.076-2.088-1.527-3.92-1.944-5.708-1.299-3.965 1.431-7.775-.247-8.827-3.887-.17-.59-.686-1.995-1.147-3.124-.934-2.285-.99-2.74-.474-3.84 1.01-2.15 6.634-7.418 11.137-10.43 1.964-1.313 3.958-2.836 5.08-3.881 4.491-4.18 8.116-5.087 18.665-4.671 3.178.125 3.178.125 3.446.642.298.577.833.872.928.512.289-1.093.481-1.417 1.042-1.754.35-.21.99-.686 1.422-1.057a32.531 32.531 0 0 1 2.024-1.546c.681-.478 2.834-2.362 4.783-4.186 3.995-3.737 5.985-5.315 7.098-5.628.418-.118.889-.412 1.045-.654.698-1.077 3.393-3.375 3.959-3.375.377 0 .894-.27 1.58-.824 2.257-1.822 9.512-5.894 13.658-7.666.892-.381 3.161-1.416 5.043-2.3 8.835-4.15 14.652-5.833 16.194-4.685 1.098.817.872 2.126-1.953 11.292-3.105 10.079-8.906 18.063-15.571 21.435-3.452 1.746-17.166 5.05-17.963 4.33-.333-.302-.366-.297-.565.075-.137.255-.4.396-.737.396-.29 0-1.334.177-2.323.394-.988.216-3.037.509-4.554.65-6.26.588-6.41.763-4.676 5.492.703 1.917 1.069 3.232 1.158 4.169.072.752.21 1.71.308 2.128.098.419.257 1.8.354 3.068.55 7.17 4.449 16.803 8.736 21.583.53.592.965 1.216.965 1.388 0 .17.196.5.436.73.548.525 2.806 4.589 3.541 6.37.304.737.909 1.95 1.345 2.696 1.197 2.05 5.048 10.074 6.023 12.55.485 1.233 1.264 2.768 1.784 3.518a23.767 23.767 0 0 1 1.579 2.697c.36.751.96 1.765 1.332 2.252.372.487.843 1.327 1.046 1.866a37.28 37.28 0 0 0 1.052 2.4c.376.781.686 1.637.688 1.901.003.264.264 1.08.58 1.812.315.732.652 1.673.748 2.09.095.42.349 1.403.563 2.187.214.784.642 2.545.95 3.912.364 1.609.832 3.052 1.326 4.088 1.03 2.16 2.085 6.057 2.312 8.54.1 1.098.33 3.408.509 5.134 2.018 19.364-7.699 35.962-24.484 41.825-3.068 1.072-4.281 2.095-5.49 4.63-.43.905-1.123 2.35-1.538 3.213-2.454 5.104-4.09 5.95-10.835 5.603-1.11-.057-2.45-.014-3.006.097-.792.158-1.424.131-3.003-.128-3.957-.65-13.957.363-16.147 1.635-1.948 1.13-5.087 1.509-5.413.651zm-.956-5.48c0-.107-.126-.086-.285.046-.157.13-.286.322-.286.427 0 .106.126.085.286-.047.156-.13.285-.322.285-.427zm51.437-20.503c.07-.114.042-.293-.064-.398-.236-.236-1.057.155-.891.424.152.246.797.228.955-.026zm-28.71-2.556c-.117-.783-1.339-2.941-1.665-2.941-.264 0-.159 1.89.146 2.62.77 1.841 1.78 2.055 1.52.32zm35.554-2.007c.218-.353-.238-.648-.572-.37-.162.133-.294.318-.294.41 0 .239.714.206.866-.04zm5.493-1.52a.212.212 0 0 0-.291-.07.212.212 0 0 0-.069.292c.061.099.192.13.291.069a.212.212 0 0 0 .07-.292zm-16.245-2.753c0-.279-.406-.375-.632-.148-.172.172.254.656.464.527.092-.058.168-.228.168-.379zm12.16-.64c.283-.527-.085-1.331-.613-1.342-.35-.007-.803 1.343-.513 1.527.45.284.916.208 1.126-.185zm-17.103-1.535a.19.19 0 0 0-.19-.19.19.19 0 0 0-.19.19c0 .105.085.19.19.19a.19.19 0 0 0 .19-.19zm-4.026-2.028c-.092-.477-.537-.542-.537-.079 0 .234.123.396.3.396.176 0 .273-.129.237-.317zm9.506-.38c-.034-.174-.162-.35-.284-.391-.142-.047-.186.068-.12.317.12.465.493.533.404.074zm-15.234-.435c1.256-.765 1.782-2.825 1.068-4.18-.518-.984-.721-.897-.753.323-.017.685-.243 1.677-.604 2.66-.626 1.702-.615 1.748.29 1.197zm18.344-3.383c.847-.995 1.023-2.797.458-4.699-.432-1.456-.57-1.192-.847 1.62-.338 3.438-.284 3.868.389 3.079zm-3.678-2.967c.087-.458-.201-.738-.602-.584-.513.197-.417 1.073.108.998.235-.034.457-.22.494-.414zm-30.862-6.698a73.377 73.377 0 0 1-.384-2.17c-.232-1.578-.695-1.48-.815.174-.093 1.294.177 2.262.858 3.071.646.768.674.678.34-1.075zm-14.355-6.603c0-.452.134-1.273.298-1.825.341-1.148.278-1.306-.401-.997-1 .456-1.548 2.563-.847 3.263.636.636.95.49.95-.441zm58.653-2.14c-.431-.325-1.074-.292-1.19.062-.055.166.169.235.745.231.775-.006.801-.023.445-.292zm1.424-.08c0-.212-.126-.381-.285-.381-.29 0-.39.402-.158.634.24.24.443.125.443-.254zm-1.52-2.295c0-.28.053-.776.118-1.101.092-.46.043-.62-.218-.72-.723-.278-1.123 1.287-.647 2.534.25.657.746.183.746-.713zm-1.536-5.211c-.107-.333-.16-.301-.454.267-.399.772-.34 2.823.096 3.352.305.369.62-2.81.358-3.62zm-16.9.803c.488-1.077-.353-4.551-1.344-5.548-.245-.246-.041 2.63.332 4.693.34 1.879.49 2.005 1.011.855zm3.246-1.53c-.244-.243-.492-.055-.311.238.07.113.214.152.32.086.13-.08.127-.187-.01-.323zm19.92.265c.302-.191.125-.588-.263-.588-.326 0-.537.316-.38.57.143.232.299.236.642.019zm-11.419-6.83c.033-.227-.02-.412-.12-.412-.29 0-.65.535-.51.762.196.317.562.114.63-.35zm6.498-.507c0-.157-.085-.286-.19-.286-.104 0-.19.129-.19.286 0 .156.086.285.19.285.105 0 .19-.129.19-.285zm2.173-1.535c.345-.344.143-.899-.442-1.212-.266-.142-.428-.104-.661.154-.434.479-.385.959.119 1.16.595.24.647.235.984-.102zm-17.04-.12c.334-.334.28-.681-.144-.908-.302-.161-.412-.124-.585.199-.386.72.173 1.265.73.71zm2.085-.532c-.272-.436-.526-.497-.526-.127 0 .324.184.507.509.507.207 0 .21-.07.017-.38zm-5.089-.862c0-.542-.303-.596-.92-.164-.41.287-.417.324-.114.66.42.463 1.034.17 1.034-.496zm-8.31-.95c-.41-.3-.725-.153-.43.202.117.141.337.209.49.15.23-.088.22-.147-.06-.352zm3.618-.023c.159-.159-.482-.633-.686-.507-.084.052-.053.215.069.363.243.293.425.336.617.144zm20.085-.533c.261-.315.113-.674-.278-.674-.343 0-.537.326-.403.675.135.352.388.352.68 0zm-19.005-1.53c0-.156-.086-.284-.19-.284-.105 0-.19.128-.19.285 0 .157.085.285.19.285.104 0 .19-.128.19-.285zm-1.247-.547c-.143-.568-.25-.602-.748-.237-.339.248-.329.275.201.554.668.35.708.326.547-.317zm-14.818.073c-.065-.105-.198-.19-.296-.19-.099 0-.18.085-.18.19 0 .104.134.19.297.19.163 0 .244-.086.18-.19zm36.74-.238c-.12-.36-.713-.411-.713-.062 0 .177.163.3.396.3s.364-.099.317-.238zm-16.981-.501c.143-.232-.398-.654-.644-.502-.337.208-.219.67.17.67.204 0 .417-.076.474-.168zm-10.011-.818c-.118-.353-.527-.411-.527-.075 0 .165.135.3.3.3.166 0 .268-.101.227-.225zm1.3-.455a1.8 1.8 0 0 1-.116-.516c0-.123-.133-.083-.308.092-.34.34-.211.724.244.724.19 0 .254-.106.18-.3zm23.22-.698c-.095-.288-.619-.409-1.05-.243-.273.104-.278.146-.037.298.418.265 1.181.226 1.088-.055zm-7.937-1.2c0-.15-.174-.273-.387-.273-.33 0-.356.057-.18.385.22.412.567.343.567-.111zm-4.028-1.556c-.077-.406-.915-.578-.915-.188 0 .364.186.52.616.52.243 0 .342-.11.3-.332zm-44.573-3.162c1.568-1.519 1.664-1.864.402-1.447-.638.21-3.132 2.958-3.132 3.45 0 .358 1.209-.53 2.73-2.003zm47.647 1.355c-.01-1.478-1.284-5.256-2.135-6.338-.46-.584-1.07-.176-.72.48.093.174.352 1.03.575 1.904.498 1.952 1.672 4.382 2.116 4.382.092 0 .166-.192.164-.428zm-24.902-.52c0-.298-.49-.55-.754-.386-.216.133-.221.22-.027.453.23.279.781.232.781-.066zm.827-.674c-.095-.247-.446-.404-.446-.2 0 .283.257.663.391.58.09-.056.114-.226.055-.38zm5.79.253c.259-.26.31-1.102.067-1.102-.312 0-.835.75-.724 1.038.135.351.349.372.656.064zm1.905-.088c-.092-.477-.537-.543-.537-.08 0 .234.123.397.3.397.176 0 .273-.13.237-.317zm.794-1.383c0-.225-.37-.465-.507-.328-.136.136.104.507.328.507a.18.18 0 0 0 .18-.18zm-1.71-.772a.19.19 0 0 0-.191-.19.19.19 0 0 0-.19.19c0 .105.085.19.19.19a.19.19 0 0 0 .19-.19zm10.942-1.159c.142-.229-.268-1.122-.515-1.122-.297 0-.416.983-.14 1.158.351.222.5.214.655-.036zm-8.801-2.569c-.49-3.937-1.897-7.607-2.635-6.87-.263.263.783 3.841 2.032 6.953.206.513.669.45.603-.083zm16.49.105c0-.099-.129-.18-.286-.18-.294 0-.377.225-.163.44.152.151.449-.02.449-.26zm-22.624-3.518c0-.29-.11-.464-.292-.464-.397 0-.564.513-.279.856.307.37.57.188.57-.392zm28.042-.464c-.092-.149-.201-.16-.328-.033a.353.353 0 0 0-.052.414c.092.148.201.16.328.033a.353.353 0 0 0 .052-.414zm-4.753-.57c.065-.105.032-.19-.073-.19-.104 0-.243.085-.307.19-.065.105-.032.19.072.19.105 0 .243-.085.308-.19zm-7.164-.996c-.062-.436-.53-.641-1.026-.45-.43.165.093.876.644.876.35 0 .43-.09.382-.426zm-37.45-1.617c.59-.92 1.636-3.45 1.487-3.6-.317-.317-2.394 3.038-2.71 4.38-.191.812.474.388 1.223-.78zm41.857.332c0-.105-.128-.19-.285-.19-.157 0-.285.085-.285.19 0 .104.128.19.285.19.157 0 .285-.086.285-.19zm-7.858-1.631c.064-.165-.025-.44-.196-.611-.288-.288-.31-.266-.31.3 0 .638.308.828.506.31zm7.93-3.654c.051-.084.023-.266-.063-.405-.202-.327-.596-.088-.455.277.117.305.37.367.518.128zm-.49-1.788c.31-.31.287-.532-.057-.532-.157 0-.456-.171-.665-.38-.752-.752-.962-.465-.365.5.418.676.712.787 1.087.412zm-6.046-.353c0-.099-.128-.18-.285-.18-.294 0-.378.225-.163.44.151.151.448-.02.448-.26zm-15.971.016c.185-.117.218-.241.095-.358-.243-.23-1.11.091-.95.351.147.239.484.242.855.007zm23.152-.35c.047-.139-.04-.181-.226-.11-.165.063-.3.199-.3.301 0 .25.432.093.526-.19zm-25.897-5.252c.293-1.56-1.423-5.813-2.16-5.357-.288.178.592 4.716 1.153 5.948.273.599.847.262 1.007-.591zm9.462-3.605c.127-.332-.024-.494-.462-.494-.39 0-.625.294-.455.57.174.283.8.23.917-.076zm4.419-1.9c-.367-1.579-1.413-3.157-2.092-3.157-.577 0 .309 2.28 1.322 3.4.928 1.028 1.056.988.77-.243zm-3.121-1.921c0-.1-.092-.211-.205-.249-.112-.037-.204.075-.204.249s.092.286.204.249c.113-.038.205-.15.205-.25zm-4.987-14.201c-.498-1.878-.667-2.244-1.037-2.244-.714 0-.218 2.569.715 3.699.802.973.877.635.322-1.455zm-38.045-.084c.09-.633-.906-1.357-1.24-.9-.266.363-.325 1.067-.108 1.284.307.307 1.289.027 1.348-.384zm26.653-.912c0-.138-.12-.351-.268-.474-.376-.312-.566.064-.27.536.246.396.538.362.538-.063zm-20.07-.596c.538-.54.169-1.603-.557-1.603-.29 0-1.046.884-1.046 1.223 0 .652 1.076.906 1.602.38zm-3.578-2.86c.646-1.546-.327-2.364-1.462-1.23-.674.675-.697 1.033-.101 1.628.597.597 1.212.44 1.563-.398zm-3.727-4.166c.56-1.155.503-1.685-.102-.946-.483.59-1.61 2.599-1.61 2.868 0 .335 1.358-1.189 1.712-1.922zm23.064-1.34c4.03-.927 6.071-3.026 4.454-4.581-1.765-1.697-3.383-2.521-3.016-1.536 1.148 3.077-.378 5.358-3.59 5.367-3.15.008-4.37-1.65-3.533-4.797.317-1.191.194-1.246-1.04-.46-3.889 2.47-2.776 5.015 2.714 6.207 1.624.353 1.607.353 4.01-.2zm-3.366-2.448c.114-.297-.798-1.626-1.116-1.626-.245 0-.05 1.27.252 1.633.288.348.73.344.864-.007zm18.998-1.042c-.187-.302-.488-.056-.355.29.073.191.176.228.298.106.102-.102.128-.28.057-.396zm-6.853-6.287c-.092-.149-.201-.16-.328-.033a.353.353 0 0 0-.052.413c.092.149.201.16.328.033a.353.353 0 0 0 .052-.413zm-19.677-.573c.253-.167.253-.208 0-.375-.48-.315-.934-.057-.666.378.147.236.302.236.666-.003zm24.795-.303c.308-.118.415-.742.156-.902-.263-.163-.858.418-.741.723.127.33.162.341.585.179zm-9.448-.962c.076-.23-.658-.557-.841-.374-.057.057-.051.243.014.412.13.339.71.312.827-.038zm3.855-.622c0-.099-.086-.232-.19-.297-.105-.064-.19.016-.19.18 0 .162.085.295.19.295.104 0 .19-.08.19-.178zm11.557-1.028c2.985-2.754 6.5-4.557 8.017-4.11 1.174.345 1.478.326 5.616-.365 9.5-1.585 16.6-4.7 18.682-8.194.342-.574.791-1.106.999-1.182.245-.09.377-.315.377-.64 0-.328.44-1.063 1.287-2.145.708-.904 1.446-1.901 1.641-2.215.195-.314.578-.785.852-1.047.879-.842 1.695-3.63 1.303-4.452-.811-1.701-2.155-1.484-9.805 1.584-5.138 2.06-5.871 2.511-10.619 6.53-.463.391-.971.712-1.129.712-.157 0-.772.493-1.367 1.097-3.242 3.29-6.555 5.405-7.548 4.82-.815-.481-1.102-.15-.572.66.177.27.293.515.258.544-2.3 1.982-5.212 3.916-5.617 3.732-.286-.13-.413-.137-.339-.016.066.106.007.232-.13.28-1.366.482-1.325.447-1.037.906.257.41.206.487-1.11 1.666-1.536 1.374-1.863 1.855-1.59 2.34.296.53.886.368 1.831-.505zm11.403-5.86a.487.487 0 0 1 .45-.118c.143.048.056.134-.2.201-.317.083-.391.058-.25-.083zm1.565-1.489c.157-.101.413-.184.57-.184.254 0 .254.02 0 .184a1.258 1.258 0 0 1-.57.184c-.254 0-.254-.02 0-.184zm-2.82-.41c.046-.314.231-.465.681-.557.798-.162.779.004-.065.55-.677.44-.677.44-.615.008zm7.427-1.84c-.176-.111-.11-.223.237-.41.264-.14.48-.406.48-.59 0-.536 4.9-4.696 5.567-4.728.653-.03-2.812 3.62-3.938 4.15-.534.25-.863.546-.937.839-.147.585-.97 1.017-1.41.739zm7.353-1.545c.67-.32 1.252-.547 1.293-.506.15.15-1.24.88-1.868.983-.51.083-.392-.016.575-.477zm1.365-4.703c.953-2.075 1.181-2.32 3.339-3.594 2.75-1.622 2.696-1.324-.314 1.746-1.255 1.28-2.281 2.404-2.281 2.5 0 .094-.34.363-.757.596-.756.426-.756.426.013-1.248zm-15.987 16.304c0-.098-.085-.232-.19-.296-.104-.065-.19.016-.19.179 0 .163.086.296.19.296.105 0 .19-.08.19-.179zm-12.928-2.673a.19.19 0 0 0-.19-.19.19.19 0 0 0-.19.19c0 .105.085.19.19.19a.19.19 0 0 0 .19-.19zm35.742-3.232a.19.19 0 0 0-.19-.19.19.19 0 0 0-.19.19c0 .105.086.19.19.19a.19.19 0 0 0 .19-.19zm-32.743-2.436c.042-.126-.1-.225-.321-.225-.395 0-.514.2-.266.447.176.176.494.056.587-.222zm6.792-4.421c0-.147-.15-.296-.332-.33-.328-.064-.464.34-.202.6.199.2.534.03.534-.27zm1.236-1.888a.19.19 0 0 0-.19-.19.19.19 0 0 0-.19.19c0 .104.085.19.19.19a.19.19 0 0 0 .19-.19zm3.59-.932c.338-.215.142-.517-.574-.887-.777-.402-1.572.348-.988.932.182.182 1.252.15 1.561-.045zm28.92-.22c0-.098-.085-.179-.19-.179s-.19.133-.19.296c0 .164.085.244.19.18.105-.065.19-.199.19-.297zm-26.997-1.879c0-.434-.3-.675-.479-.385-.16.258.027.754.283.754.108 0 .196-.166.196-.369zm24.058-.214c.175-.283-.028-.437-.392-.297-.168.064-.252.203-.187.309.154.249.421.244.58-.012zm3.51-.557a.19.19 0 0 0-.19-.19.19.19 0 0 0-.19.19c0 .104.085.19.19.19a.19.19 0 0 0 .19-.19zm-23.955-.159c0-.247-.226-.412-.41-.298-.197.121-.027.457.23.457.1 0 .18-.072.18-.159zm21.84-.203c.298-.189.128-.589-.25-.589-.138 0-.346.115-.462.255-.36.433.167.68.712.334zm-24.715-.38c.302-.192.126-.59-.262-.59-.327 0-.537.317-.38.571.143.232.298.236.642.018zm3.635-.958c0-.099-.09-.235-.199-.302-.28-.173-.8.057-.657.29.15.241.856.251.856.012zm22.034-1.706c.205-.13.131-.238-.323-.473-.87-.45-1.122-.275-.5.348.343.342.454.358.823.125zm-15.112-.64c.143-.228.133-.383-.036-.551-.32-.321-.867.213-.69.673.145.38.44.33.726-.123zm-5.218-.224c.258-.31.115-.673-.266-.673-.342 0-.738.507-.587.752.174.283.585.245.853-.079zm1.865-.638c.041-.124-.06-.226-.226-.226a.302.302 0 0 0-.3.301c0 .336.408.278.526-.075zm21.194-.95c.439-.376.423-1.036-.035-1.451-.358-.323-.372-.311-.487.398-.065.403-.159.931-.21 1.175-.097.472.075.443.732-.121zM139.7 46.555c.06-.097.022-.23-.084-.297-.106-.065-.193.014-.193.177 0 .334.114.384.277.12zm9.229.01c0-.092-.129-.273-.286-.404-.238-.197-.285-.17-.285.167 0 .232.122.404.285.404.157 0 .286-.075.286-.167zm10.044-.583c.102-.693-.299-.927-.533-.31-.109.286-.147.604-.084.706.187.302.55.07.617-.396zm-2.025-.812c-.136-.137-.225-.148-.225-.029 0 .254.225.479.352.352.054-.054-.003-.2-.127-.323zm5.479-4.545c0-.23-.52-.211-.665.023-.206.333.099.614.397.366.147-.122.268-.297.268-.39zm-2.77-2.09c-.13-.21-.842-.224-.842-.016 0 .083.1.252.223.375.254.254.801-.064.619-.359zm1.706 172.191c-1.15-.28-1.869-.76-2.918-1.952-.997-1.132-.897-1.191.485-.285 2.677 1.756 7.42 2.387 11.7 1.558 1.07-.208 1.99-.331 2.046-.275.27.27-1.672.933-2.226.76-.178-.056-.794.024-1.369.178-1.3.347-6.311.358-7.718.016zm-5.036-2.442c-1.214-1.162-2.911-3.172-2.785-3.298.4-.4 1.304.405 2.647 2.359.804 1.17 1.443 2.128 1.42 2.128-.022 0-.6-.535-1.282-1.189zm8.381.961c-1.666-.208-2.306-.47-2.56-1.05-.137-.31-.295-.392-.607-.314-.232.058-.662-.022-.956-.18a40.704 40.704 0 0 0-1.581-.769c-.576-.266-1.508-.877-2.071-1.358-.564-.481-1.352-1.042-1.753-1.246-3.188-1.627-3.98-6.18-1.991-11.463.706-1.876 2.008-11.26 2.012-14.5.004-3.15 1.467-4.652 6.272-6.44 6.37-2.37 14.17-.61 18.638 4.207.473.509 1.131 1.069 1.464 1.244 1.44.757 3.435 6.13 3.59 9.663.048 1.098.227 2.604.398 3.347.311 1.352.311 1.352-.474 3.898-.432 1.4-.877 2.907-.988 3.35-.902 3.577-8.735 10.599-12.358 11.077-.889.118-2.038.337-2.554.488-1.036.302-2.324.316-4.48.046zm-5.48-7.23c-.124-.124-.259-.056-.397.203-.169.315-.145.426.125.58.384.216.613-.442.273-.782zm16.507.791c0-.756-.709-1.173-1.13-.666-.183.221-.125.328.31.563.643.35.82.371.82.103zm-2.566-1.699c.064-.104.027-.19-.084-.19-.11 0-.201.086-.201.19 0 .105.037.19.083.19.046 0 .137-.085.202-.19zm-11.352-.578c.268-.429.16-.752-.25-.752-.317 0-.645.565-.524.903.128.358.502.285.774-.15zm8.34-1.616c.061-.161.06-.345-.002-.407-.164-.165-.71.33-.585.532.162.262.462.198.587-.125zm-6.59-.488c0-.217-.515-.222-.648-.006-.056.09-.053.213.007.273.148.148.641-.056.641-.266zm10.267.02c0-.104-.128-.19-.285-.19-.157 0-.285.086-.285.19 0 .105.128.19.285.19.157 0 .285-.085.285-.19zm-2.32-.387c.267-.43.16-.753-.251-.753-.395 0-.695.65-.424.922.302.301.395.278.674-.17zm-9.562-.753c-.065-.105-.203-.19-.308-.19-.104 0-.137.085-.072.19.064.105.203.19.307.19.105 0 .137-.085.073-.19zm1.32-.777a.212.212 0 0 0-.29-.068.212.212 0 0 0-.07.29c.062.1.193.13.292.07a.212.212 0 0 0 .069-.292zm18.638-.08c.881-.72.379-.972-.62-.311-.779.516-.868.795-.247.78.165-.003.556-.214.867-.469zm-11.773-.3c.196-.317-.245-.68-.507-.419-.22.22-.082.625.212.625.092 0 .225-.093.295-.206zm-8.66-.459c0-.157-.086-.285-.19-.285-.105 0-.19.128-.19.285 0 .157.085.285.19.285.104 0 .19-.128.19-.285zm17.96-.277c.126-.203-.286-.959-.521-.959-.224 0-.385.53-.26.856.122.319.609.383.782.103zm1.27-2.195c0-.099-.092-.21-.205-.248-.112-.038-.204.074-.204.248 0 .175.092.287.204.25.113-.038.205-.15.205-.25zm-5.162-1.996c0-.104-.171-.19-.38-.19-.21 0-.38.086-.38.19 0 .105.17.19.38.19.209 0 .38-.085.38-.19zm-16.957-1.155c-.037-.112-.15-.204-.249-.204s-.21.092-.248.204c-.038.113.074.205.248.205.175 0 .287-.092.25-.205zm17.342-2.614c-.391-.13-.765.145-.765.564 0 .42 0 .42.486-.037.268-.252.394-.489.28-.527zm5.129-2.724c0-.302-.603-.417-.77-.147-.236.383.174.814.51.536.143-.12.26-.294.26-.389zm.19 20.043c0-.378 3.79-5.155 4.192-5.283.747-.237.604.075-.584 1.276a40.04 40.04 0 0 0-2.325 2.625c-1.387 1.738-1.283 1.626-1.283 1.382zm6.315-2.595c.509-.679.635-.765.686-.464.087.516-.471 1.297-.928 1.297-.346 0-.323-.08.242-.833zm2.536-9.101c.399-1.291.71-1.61.892-.915.15.57.116.697-.27.994-.596.458-.78.434-.622-.08zm-110.184-.428c0-.052.043-.095.095-.095.052 0 .095.043.095.095a.095.095 0 0 1-.095.095.095.095 0 0 1-.095-.095zm107.915-.058c-.189-.305-.694-4.745-.783-6.881-.09-2.186-.09-2.186.282-1.083.399 1.179.763 3.625.763 5.127 0 .505.128 1.165.284 1.468.395.764-.121 2.057-.546 1.369zm-108.177-.52c-.183-.478-.13-.6.095-.216.111.191.162.387.113.436-.05.05-.143-.05-.208-.22zm-4.041-6.2c-1.144-1.258-1.358-2.807-.742-5.39.362-1.52.362-1.52.804 1.807.523 3.93.518 4.22-.062 3.582zm112.962-2.8c-.636-2.317-.45-2.964.344-1.196.5 1.113.613 2.063.334 2.777-.106.27-.287-.152-.678-1.58zm-114.982-5.536c-.061-.157-.168-.628-.237-1.046-.07-.418-.257-.906-.418-1.085-.263-.293-.238-.495.251-2.09.542-1.767.542-1.767.677-1.007.275 1.553.042 6.033-.273 5.228zm108.2-3.813c-.426-.37-.427-.38-.032-.19.23.112.47.288.534.392.187.302-.018.22-.502-.202zm-20.317-3.24c1.916-.662 4.075-.974 3.179-.457-.711.409-3.264 1.05-4.112 1.032-.588-.013-.459-.092.933-.574zm8.874-.257c-.859-.307-1.192-.588-.5-.423.265.064.974.173 1.573.244.6.07 1.136.201 1.192.291.158.256-1.457.175-2.265-.112zm5.385-2.027c-4.943-1.54-6.365-2.218-4.135-1.974 1.953.214 3.223.539 3.818.975.331.244 1.201.737 1.933 1.096 1.715.842 1.324.818-1.616-.097zm-98.861-1.173c0-1.791 1.616-4.411 3.386-5.49a41.032 41.032 0 0 0 1.994-1.362c1.912-1.38 1.736-1.022-.834 1.7-1.272 1.347-2.741 3.09-3.265 3.875-1.227 1.837-1.281 1.89-1.281 1.277zm90.306-.304c0-.325.525-.63.673-.391.075.121.018.295-.126.386-.337.214-.547.216-.547.005zm-125.465-8.66c-.42-.446-.42-.446.354-.52.637-.06.774-.015.774.257 0 .611-.657.764-1.128.264zm-20.83-.43c-1.046-.2-1.244-.272-1.155-.417.053-.086 1.19-.203 2.527-.259 1.336-.056 4.312-.321 6.612-.59 6.506-.76 12.067-1.066 12.643-.694.349.225.613.202-3.232.283-1.62.034-4.829.284-7.13.556-4.916.582-8.743 1.042-9.41 1.13-.262.035-.647.03-.856-.01zm-4.659-2.32c0-.213.15-.464.333-.558.33-.169 14.06-.483 13.895-.317-.66.66-14.228 1.494-14.228.875zm20.153-1.35c.376-.244 1.52-.244 1.52 0 0 .104-.405.188-.902.186-.653-.002-.824-.053-.618-.187zm-18.639-1.816c-3.317-.355-3.7-.542-4.972-2.43a24.013 24.013 0 0 0-1.626-2.112c-1.556-1.747-1.887-3.207-.917-4.042.87-.748 1.274-.592 3.26 1.258 2.402 2.24 3.924 2.415 19.472 2.253 5.717-.06 8.146-.052 13.878.046 4.387.074 7.155-.103 10.6-.677.58-.096.617-.068.617.453 0 .818-.251.939-3.648 1.756-1.705.41-3.614.88-4.242 1.041a41.51 41.51 0 0 1-1.996.46c-.47.092-1.792.572-2.938 1.066-2.082.9-2.082.9-3.802.685-3.988-.496-4.55-.487-13.697.227-4.113.322-7.095.326-9.989.016zm129.517-7.228c-.473-.331-1.292-1.793-1.004-1.793.374 0 1.167.875 1.335 1.473.095.34.156.618.134.618-.022 0-.23-.134-.465-.298zm-132.475-1.028c-.846-.342-2.237-2.645-2.324-3.848-.136-1.88.39-1.391 2.034 1.89 1.187 2.37 1.179 2.317.29 1.958zm28.713-.53c-1.545-.178-4.32-.208-10.823-.116-12.757.18-12.081.189-12.784-.182-.842-.445-1.039-.799-2.035-3.666-1.44-4.146-.83-5.655 1.69-4.178 1.359.797 1.94.802 3.394.03 1.535-.814 2.82-.919 3.614-.293 1.334 1.049 2.53 1.17 4.618.47 1.71-.574 1.982-.584 2.781-.096.829.505 1.372.48 2.381-.112.712-.417.978-.474 1.728-.366 1.281.185 3.02.19 4.146.014.879-.138 1.115-.09 2.322.465 1.575.726 2.946.74 3.693.039.934-.877 3.509-1.062 4.51-.324.353.261.796.475.982.475.187 0 .907-.214 1.602-.475 1.887-.71 1.956-.698 4.052.712.8.539 1.45.422 2.372-.427 1.01-.931 2.007-1.055 2.495-.31.346.529-.165 2.25-.853 2.873-.203.183-.596.943-.875 1.689-.649 1.737-1.313 2.9-1.863 3.26-.932.61-13.144.98-17.147.518zm-26.132-.715c-.132-.16-.181-.35-.109-.421.159-.159.726.174.83.486.109.325-.438.275-.72-.065zm48.72-2.844c.87-1.324 1.095-1.488 1.095-.802 0 .433-1.354 2.034-1.72 2.034-.1 0 .18-.554.626-1.232zm-1.86.52c.135-.558 1.054-1.628 1.054-1.228 0 .25-.936 1.75-1.092 1.75-.05 0-.033-.235.037-.523zm4.112-.904c.005-.295 1.864-3.833 1.875-3.566.018.443-.943 2.615-1.41 3.186-.258.314-.466.485-.465.38zm73.325-2.994c-.692-1.067-5.3-11.392-5.245-11.754.15-.997 3.327 3.712 4.009 5.945.463 1.517 1.64 6.237 1.555 6.237-.022 0-.166-.193-.319-.428zm-114.122-4.175a39.594 39.594 0 0 0-5.18-.42c-4.17-.026-3.62-.627 2.39-2.612 8.945-2.955 18.834-3.602 24.538-1.607a19.1 19.1 0 0 0 6.208 1.067c.975 0 2.01.09 2.299.2 1.226.465 5.012 3.034 5.012 3.4 0 .059-5.496.122-12.215.14-6.718.018-14.054.078-16.302.135-3.551.088-4.437.049-6.75-.303zm10.552-7.822c0-3.035 4.166-3.572 5.034-.65.464 1.566.607 1.477-2.372 1.477-2.662 0-2.662 0-2.662-.827zm15.367-2.08c-.998-.758-3.606-4.05-4.249-5.363-.807-1.646-.893-2.62-.931-10.551-.04-8.488-.072-8.707-1.838-12.884-1.274-3.012-1.805-3.779-4.583-6.618-5.216-5.33-6.533-8.093-6.377-13.378.2-6.776 2.393-10.164 7.622-11.776 4.245-1.31 8.266 1.379 7.542 5.043-1.173 5.938-3.934 7.615-7.747 4.707-.614-.468-.614-.468.082-1.876.697-1.408.697-1.408 1.35-.835 1.49 1.308 3.552-.832 2.67-2.77-.787-1.725-3.971-.974-5.66 1.336-1.582 2.162-2.339 8.313-1.273 10.343 1.293 2.464 3.29 5.25 4.505 6.282 4.206 3.577 5.553 5.806 7.403 12.258.934 3.257.95 3.504.685 10.358-.285 7.356.083 9.385 2.849 15.732.398.915-.843.91-2.05-.008zm81.804-.568c-.283-.975-.19-1.378.165-.715.12.223.19.68.158 1.015-.057.588-.068.577-.323-.3zm-106.867-1.82c-7.29-2.857-10.407-8.441-9.883-17.709.621-10.987.194-14.07-2.203-15.898-2.719-2.074-6.18 1.688-4.117 4.476.65.878 1.256 1.049 2.736.77 1.542-.291 1.496-.322 1.624 1.09.12 1.317.063 1.38-1.605 1.83-5.694 1.53-9.284-5.88-4.764-9.835 4.427-3.872 8.903-2.603 11.563 3.279 1.098 2.427 1.186 4.044.889 16.37-.186 7.712 1.45 11.494 6.292 14.546 2.14 1.35 1.82 2.002-.532 1.08zm52.373-.6c.414-1.35 1.44-2.904 1.726-2.617.296.295-.719 2.176-1.514 2.807-.334.266-.348.254-.212-.19zm-41.578-.426c-.275-.215-.582-1.862-.344-1.848.056.003.336.214.623.467.894.786.63 2.09-.279 1.381zm-8.087-.684c-.265-.164-2.019-4.394-1.88-4.533.124-.123 1.348 2.115 1.828 3.341.426 1.088.44 1.434.052 1.192zm52.997-2.192c0-.04.15-.19.332-.333.302-.236.308-.23.072.072-.248.317-.404.418-.404.261zm-49.994-2.327c-.846-.712-1.017-1.132-1.939-4.735-.92-3.6-.885-2.996-.763-12.924.117-9.52-1.308-14.247-5.674-18.812-7.136-7.462-9.86-10.978-11.672-15.065-3.94-8.887 1.818-17.64 10.618-16.14 4.133.704 6.205 3.633 5.436 7.684-1.172 6.183-11.011 6.133-10.617-.054.052-.818.134-.983.63-1.263 1.279-.722 1.373-.686 1.52.58.352 3.03 3.91 3.789 4.953 1.056 1.62-4.243-4.165-6.762-7.48-3.257-4.924 5.207-2.666 11.14 8.804 23.131 4.619 4.83 4.775 5.078 6.046 9.603 1.495 5.326 1.677 6.95 1.21 10.826-.708 5.894-.569 13.165.34 17.636.228 1.125.373 2.087.321 2.138-.258.259-1.209.037-1.733-.404zm10.379-3.067c-.069-1.542-.18-3.489-.246-4.325-.12-1.521-.12-1.521.426-.872.64.76.798 2.183.505 4.56-.095.775-.114 1.729-.043 2.12.126.688-.048 1.321-.364 1.321-.084 0-.21-1.262-.278-2.804zm-7.725 2.424c0-.14.057-.197.127-.127a.18.18 0 0 1 0 .254c-.07.07-.127.012-.127-.127zm-10.727-1.176c-.375-.437-.77-1.1-.879-1.473-.268-.92-.454-5.144-.21-4.766.298.462 1.12 3.206 1.452 4.848l.375 1.854c.096.473.025.429-.738-.463zm57.455-2.151c.075-.418.119-1.616.099-2.662-.037-1.901-.037-1.901.354-1.426.514.623.417 2.716-.185 3.993-.403.855-.403.855-.268.095zm3.75-.238c.568-1.924.854-3.194.854-3.795 0-.713.385-.829 1.098-.33.702.493.535 1.192-.765 3.195-1.334 2.054-1.574 2.243-1.187.93zm-57.878-.447a9.859 9.859 0 0 1-.87-5.08c.16-1.712.199-1.683.47.347.119.888.424 2.55.678 3.694.547 2.455.484 2.688-.278 1.04zm11.155-.367c-1.166-1.97-1.478-3.965-1.1-7.028.123-.993.273-2.66.333-3.703.205-3.564 1.001.703 1.003 5.378.001 1.6.094 3.503.206 4.228.293 1.887.18 2.176-.442 1.125zm-24.668-5.317c0-.14.057-.197.127-.127a.18.18 0 0 1 0 .254c-.07.07-.127.012-.127-.127zm.19-1.14c0-.14.057-.197.127-.128a.18.18 0 0 1 0 .254c-.07.07-.127.013-.127-.127zm10.364-1.942a24.693 24.693 0 0 0-.303-1.991c-.19-.882-.017-2.735.215-2.314.303.547.951 4.057.842 4.555-.25 1.14-.614 1.02-.754-.25zm51.9.8c-.287-.123-.162-.166.512-.176.49-.007.944.072 1.009.177.143.232-.98.232-1.521 0zm-61.013-1.9c-.18-.897-.061-2.846.175-2.902.253-.06.35 2.133.13 2.936-.172.63-.172.63-.305-.035zm25.008-.888a3.117 3.117 0 0 0-.145-.57c-.096-.27-.07-.3.112-.131.13.12.196.376.146.57-.05.194-.101.253-.113.13zm-27.21-2.174c0-.616.268-1.121.594-1.121.17 0-.186 1.36-.42 1.606-.106.11-.173-.08-.173-.485zm28.078-.218c-2.036-2.734-3.742-5.203-3.742-5.414 0-.14-.214-.677-.475-1.193-.55-1.083-.56-1.14-.228-1.14.631 0 3.79 4.856 4.637 7.129.539 1.445.505 1.554-.192.618zm-28.188-5.45c.44-.485.923-.522.836-.064-.04.21-.274.357-.63.398-.562.064-.563.062-.206-.333zm-1.03-1.508c0-.31.7-.79 1.152-.79.418 0 .397.041-.242.476-.752.51-.91.565-.91.314zm-.095-2.31c.065-.105.155-.19.201-.19.046 0 .084.085.084.19 0 .104-.09.19-.201.19-.11 0-.149-.086-.084-.19zm30.02-7.254c-.084-.136-.052-.168.084-.084.121.074.22.173.22.22 0 .158-.168.083-.304-.136zm-1.849-.536c-.688-.818-1.23-3.954-.736-4.26.083-.052.503.313.931.81.735.854.759.918.418 1.13-.407.255-.501 1.542-.176 2.397.24.632.146.616-.437-.077zm74.826-.053c-.583-.737-.666-1.133-.207-1 .453.133 1.11.764 1.11 1.069 0 .255-.688.203-.903-.069zm16.456-.272c.138-.055.302-.048.365.015s-.05.108-.25.1c-.221-.01-.266-.055-.115-.115zm.749-.186a.734.734 0 0 1 .475 0c.13.052.024.095-.237.095-.262 0-.369-.043-.238-.095zM118.7 77.057c-.889-.15-1.723-.275-1.854-.28-.13-.004-.237-.133-.237-.286 0-.63.641-.655 4.861-.19 2.293.254 4.255.465 4.36.47.104.006.027.104-.171.22-.573.332-5.114.375-6.96.066zm8.202-1.597c-.397-.252 1.533-.65 2.421-.5.412.069.907.245 1.1.391.407.31-3.037.415-3.52.109zm-84.156-1.164c-1.08-1.091-1.185-1.75-.162-1.013.267.192.84.563 1.275.825.79.475.79.475.38.878-.41.404-.41.404-1.493-.69zm2.664.572c-.251-.107-.284-.167-.096-.174.157-.005.414.073.57.174.348.225.048.225-.474 0zm87.739-.171c-1.073-.171-.8-.287 1.616-.69 2.025-.336 3.27-.375 4.165-.128 1.34.368-3.925 1.113-5.781.818zM31.057 70.733c.001-.392-.102-1.768-.23-3.057-.264-2.688-.203-2.894 1.478-5.036 1.45-1.847 1.875-1.74 1.157.29-.666 1.885-1.22 4.188-1.343 5.594-.206 2.342-1.066 4.132-1.062 2.21zm-5.606-4.417c-.407-.416-.694-.802-.639-.858.225-.224 1.447.478 1.559.895.26.97.054.961-.92-.037zm73.096-.278c0-1.589 4.493-8.69 6.241-9.864a3.58 3.58 0 0 0 1.2-1.375c.378-.805 1.68-2.174 2.066-2.174.104 0 .19-.145.19-.321 0-.176.329-.71.73-1.188.403-.477.872-1.14 1.043-1.47.171-.332.911-1.144 1.644-1.807.732-.662 1.333-1.298 1.334-1.413.008-.91 5.357-4.799 10.553-7.672a239.278 239.278 0 0 0 5.346-3.06c4.122-2.45 10.129-5.313 11.146-5.313.329 0 .902-.207 1.274-.46 2.934-1.993 5.75-1.404 5.472 1.145-.141 1.285-2.595 5.62-3.112 5.497-.562-.132-1.169.759-.857 1.258.473.757-.468 1.905-2.349 2.865-.627.32-2.192 1.218-3.478 1.997-1.285.778-2.72 1.546-3.19 1.705-.468.16-1.084.521-1.369.802-.285.282-1.117.845-1.849 1.251-.732.407-2.742 1.634-4.467 2.727-1.726 1.093-3.454 2.126-3.84 2.294-.413.18-2.201 1.778-4.332 3.872-1.996 1.96-3.702 3.564-3.792 3.564-.09 0-1.159.98-2.376 2.177-4.056 3.988-13.228 7.43-13.228 4.963zm3.993-1.246a.19.19 0 0 0-.19-.19.19.19 0 0 0-.19.19c0 .105.085.19.19.19a.19.19 0 0 0 .19-.19zm2.058-.443c.046-.24-.08-.317-.523-.317a12.8 12.8 0 0 1-.722-.015c-.397-.04-.188.384.27.55.662.24.896.188.975-.218zm-1.59-4.107c.14-.227-.218-.453-.471-.296-.213.131-.073.473.193.473.092 0 .217-.08.277-.177zm1.813-.773c0-.292-.725-.95-1.045-.95-.471 0-.324.32.332.726.756.467.713.454.713.224zm.468-1.508c.06-.097.022-.23-.084-.296-.107-.066-.194.013-.194.177 0 .333.115.383.278.119zm5.963-.837c.036-.188-.06-.317-.238-.317-.176 0-.299.163-.299.396 0 .463.444.398.537-.079zm3.17-.285c0-.344-.372-.281-.446.075-.04.198.03.285.19.232.141-.047.256-.185.256-.307zm-4.467-.792c.182-.341.144-.38-.363-.38-.682 0-.913.283-.45.552.479.279.583.256.813-.172zm5.582-1.996c-.06-.156-.186-.236-.28-.178-.268.165-.198.463.11.463.17 0 .236-.112.17-.285zm3.507-.618c-.077-.401-.415-.376-.5.037-.036.172.068.295.251.295.196 0 .289-.124.249-.332zm-8.329-.824c0-.728-.448-.662-.535.078-.043.36.026.508.237.508.206 0 .298-.181.298-.586zm.19-1.315a.19.19 0 0 0-.19-.19.19.19 0 0 0-.19.19c0 .104.085.19.19.19a.19.19 0 0 0 .19-.19zm8.746-.57a.19.19 0 0 0-.19-.19.19.19 0 0 0-.19.19c0 .104.085.19.19.19a.19.19 0 0 0 .19-.19zm-1.489-1.266c.444-.402.447-.826.005-.826a.802.802 0 0 0-.798.799c0 .427.338.439.793.027zm4.32.055c.163-.197.151-.313-.047-.478-.306-.254-.813.2-.603.54.167.27.391.248.65-.062zm-2.356-.5c.205-.332-.099-.615-.395-.369-.147.122-.22.297-.162.39.138.224.411.214.557-.022zm-4.278-.193c0-.106-.104-.36-.23-.563-.193-.307-.167-.443.15-.805.811-.924.872-1.049.565-1.166-.807-.31-2.114 1.702-1.526 2.35.356.394 1.041.515 1.041.184zm5.514-1.519c.215-.402.076-.483-.357-.208-.145.091-.204.26-.132.377.181.293.255.268.489-.169zm-1.141-1.236a.286.286 0 0 0-.285-.285c-.297 0-.377.225-.159.444.219.219.444.138.444-.159zm-2.802-.208c.179-.179-.064-.647-.335-.647s-.514.468-.336.647c.063.062.214.113.336.113.122 0 .273-.05.335-.113zm5.083-.932c0-.157-.085-.285-.19-.285-.104 0-.19.128-.19.285 0 .157.086.285.19.285.105 0 .19-.128.19-.285zm-3.612-.297c0-.098-.128-.179-.285-.179-.294 0-.378.225-.164.439.152.152.449-.02.449-.26zm6.274-.163c0-.497-.195-.966-.4-.966-.195 0-.226.585-.055 1.03.16.418.455.377.455-.064zm-4.957-1.044c.152-.184.16-.308.023-.392-.265-.164-.58.045-.58.386 0 .35.27.352.557.006zm13.057-1.582c-.194-.193-.353.098-.194.355.12.193.164.194.229 0 .044-.132.028-.292-.035-.355zm-.876-.947c0-.052-.192-.331-.427-.62a8.916 8.916 0 0 1-.625-.86c-.262-.448-.989-.223-1.269.39-.264.58.075 1.034.776 1.038.275.002.62.08.768.173.255.161.777.08.777-.121zm-9.31-.782c-.392-.13-.766.145-.766.564 0 .42 0 .42.487-.038.267-.251.393-.488.279-.526zm3.688-.627c-.124-.199-.461-.039-.461.219 0 .095.127.124.284.064.156-.06.236-.187.177-.283zm13.797.125c0-.314-.669-.734-.996-.625-.13.043-.05.237.2.488.482.481.796.535.796.137zm-2.28-1.623c0-.4-.278-.511-.476-.19-.139.225.041.57.296.57.099 0 .18-.17.18-.38zm-8.461-.348c0-.344-.372-.281-.446.075-.041.198.03.285.19.232.14-.047.256-.185.256-.307zm7.286-.729c-.093-.477-.537-.542-.537-.08 0 .234.123.397.3.397.176 0 .273-.13.237-.317zm-.297-2.648c.213-.213-.09-.647-.45-.647-.35 0-.49.378-.234.633.158.158.533.165.684.014zm7.365-2.75c0-.098-.129-.179-.285-.179-.294 0-.378.225-.164.439.152.152.449-.02.449-.26zm.38-1.403c0-.303-.345-.585-.511-.419-.157.156.087.693.315.693.108 0 .196-.124.196-.274zM28.044 65.553c0-.262.043-.369.096-.238a.734.734 0 0 1 0 .475c-.053.13-.096.024-.096-.237zm-4.62-2.837c-.531-.434-.038-.73 1.532-.92.84-.102.84-.102.072.591-.885.8-.996.823-1.604.329zm-1.684-1.738c0-.11.085-.148.19-.083.105.064.19.155.19.201 0 .046-.085.084-.19.084s-.19-.09-.19-.202zm3.045-6.679c.005-.477.37-.87.374-.402.002.229-.083.469-.187.534-.105.064-.189.005-.187-.132z"/></svg>